<svg xmlns="http://www.w3.org/2000/svg" xmlns:xlink="http://www.w3.org/1999/xlink" width="500" zoomAndPan="magnify" viewBox="0 0 375 374.999991" height="500" preserveAspectRatio="xMidYMid meet" version="1.0"><defs><filter x="0%" y="0%" width="100%" height="100%" id="ffb60a867e"><feColorMatrix values="0 0 0 0 1 0 0 0 0 1 0 0 0 0 1 0 0 0 1 0" color-interpolation-filters="sRGB"/></filter><g/><mask id="97acebcc73"><g filter="url(#ffb60a867e)"><rect x="-37.5" width="450" fill="#000000" y="-37.499999" height="449.999989" fill-opacity="0.29"/></g></mask><clipPath id="409f98cb93"><rect x="0" width="317" y="0" height="375"/></clipPath></defs><g mask="url(#97acebcc73)"><g transform="matrix(1, 0, 0, 1, 58, 0)"><g clip-path="url(#409f98cb93)"><g fill="#ffffff" fill-opacity="1"><g transform="translate(0.673563, 347.77504)"><g><path d="M 166.5625 10.46875 C 245.296875 10.46875 298.09375 -31.859375 303.546875 -106.03125 L 239.828125 -106.03125 C 234.828125 -75.09375 213.890625 -47.78125 170.65625 -47.78125 C 114.234375 -47.78125 83.28125 -93.75 83.28125 -162.015625 C 83.28125 -228 114.234375 -273.0625 170.65625 -273.0625 C 210.703125 -273.0625 234.375 -250.75 239.828125 -216.625 L 304 -216.625 C 298.09375 -287.625 246.65625 -331.3125 167.46875 -331.3125 C 81 -331.3125 15.921875 -266.6875 15.921875 -162.015625 C 15.921875 -56.890625 80.09375 10.46875 166.5625 10.46875 Z M 166.5625 10.46875 "/></g></g></g></g></g></g></svg>