<svg xmlns="http://www.w3.org/2000/svg" xmlns:xlink="http://www.w3.org/1999/xlink" width="500" zoomAndPan="magnify" viewBox="0 0 375 374.999991" height="500" preserveAspectRatio="xMidYMid meet" version="1.0">
  <defs>
    <g/>
    <clipPath id="bd2ad89276">
      <path d="M 284.652344 195.933594 L 341.242188 195.933594 L 341.242188 252.519531 L 284.652344 252.519531 Z M 284.652344 195.933594 " clip-rule="nonzero"/>
    </clipPath>
    <clipPath id="e9ab622b14">
      <path d="M 312.945312 195.933594 C 297.320312 195.933594 284.652344 208.597656 284.652344 224.226562 C 284.652344 239.851562 297.320312 252.519531 312.945312 252.519531 C 328.574219 252.519531 341.242188 239.851562 341.242188 224.226562 C 341.242188 208.597656 328.574219 195.933594 312.945312 195.933594 Z M 312.945312 195.933594 " clip-rule="nonzero"/>
    </clipPath>
  </defs>
  <g fill="#FFFFFF" fill-opacity="1">
    <g transform="translate(19.27335, 246.645327)">
      <g>
        <path d="M 66.828125 3.84375 C 98.40625 3.84375 121.125 -15.203125 123.640625 -46.28125 L 86.375 -46.28125 C 85.046875 -32.578125 78.6875 -25.890625 67.171875 -25.890625 C 53.46875 -25.890625 44.9375 -36.09375 44.9375 -59.3125 C 44.9375 -81.203125 53.296875 -92.0625 67.171875 -92.0625 C 77.6875 -92.0625 84.703125 -86.046875 86.375 -73.84375 L 123.296875 -73.84375 C 119.796875 -103.59375 97.578125 -121.796875 66.828125 -121.796875 C 32.25 -121.796875 7.515625 -97.734375 7.515625 -58.984375 C 7.515625 -20.21875 32.25 3.84375 66.828125 3.84375 Z M 66.828125 3.84375 "/>
      </g>
    </g>
  </g>
  <g fill="#FFFFFF" fill-opacity="1">
    <g transform="translate(148.263326, 246.645327)">
      <g>
        <path d="M 81.03125 -77.859375 L 47.453125 -77.859375 L 47.453125 -118.953125 L 10.03125 -118.953125 L 10.03125 0 L 47.453125 0 L 47.453125 -46.953125 L 81.03125 -46.953125 L 81.03125 0 L 118.453125 0 L 118.453125 -118.953125 L 81.03125 -118.953125 Z M 81.03125 -77.859375 "/>
      </g>
    </g>
  </g>
  <g clip-path="url(#bd2ad89276)">
    <g clip-path="url(#e9ab622b14)">
      <path fill="#FFFFFF" d="M 284.652344 195.933594 L 341.242188 195.933594 L 341.242188 252.519531 L 284.652344 252.519531 Z M 284.652344 195.933594 " fill-opacity="1" fill-rule="nonzero"/>
    </g>
  </g>
</svg>
