<svg xmlns="http://www.w3.org/2000/svg" xmlns:xlink="http://www.w3.org/1999/xlink" width="500" zoomAndPan="magnify" viewBox="0 0 375 374.999991" height="500" preserveAspectRatio="xMidYMid meet" version="1.0"><defs><clipPath id="2cbe48f1c6"><path d="M 41.320312 4.773438 L 337 4.773438 L 337 375 L 41.320312 375 Z M 41.320312 4.773438 " clip-rule="nonzero"/></clipPath></defs><g clip-path="url(#2cbe48f1c6)"><path fill="#ffffff" d="M 301.730469 4.144531 L 75.832031 4.144531 C 56.800781 4.144531 41.320312 19.625 41.320312 38.65625 L 41.320312 339.851562 C 41.320312 358.886719 56.800781 374.363281 75.832031 374.363281 L 301.730469 374.363281 C 320.761719 374.363281 336.242188 358.886719 336.242188 339.851562 L 336.242188 38.65625 C 336.242188 19.625 320.761719 4.144531 301.730469 4.144531 Z M 197.835938 55.019531 C 202.660156 53.132812 208.144531 55.421875 210.070312 60.265625 L 226.429688 101.160156 L 242.792969 60.265625 C 244.726562 55.433594 250.210938 53.144531 255.023438 55.019531 C 259.851562 56.941406 262.199219 62.421875 260.269531 67.25 L 235.167969 130 C 233.742188 133.578125 230.277344 135.917969 226.429688 135.917969 C 222.582031 135.917969 219.121094 133.578125 217.691406 130 L 192.59375 67.25 C 190.660156 62.421875 193.007812 56.941406 197.835938 55.019531 Z M 149.347656 54.34375 C 158.589844 54.34375 167.382812 58.230469 174.117188 65.289062 C 177.707031 69.050781 177.566406 75.007812 173.808594 78.597656 C 170.046875 82.191406 164.09375 82.042969 160.5 78.28125 C 158.269531 75.953125 154.53125 73.167969 149.347656 73.167969 C 139.710938 73.167969 131.871094 83.023438 131.871094 95.132812 C 131.871094 107.238281 139.710938 117.09375 149.347656 117.09375 C 153.40625 117.09375 157.371094 115.28125 160.511719 111.972656 C 164.09375 108.21875 170.066406 108.0625 173.816406 111.652344 C 177.585938 115.230469 177.726562 121.1875 174.140625 124.960938 C 167.414062 132.019531 158.605469 135.917969 149.347656 135.917969 C 129.335938 135.917969 113.046875 117.621094 113.046875 95.132812 C 113.046875 72.640625 129.335938 54.34375 149.347656 54.34375 Z M 188.78125 324.164062 L 100.933594 324.164062 C 95.734375 324.164062 91.519531 319.949219 91.519531 314.753906 C 91.519531 309.554688 95.734375 305.339844 100.933594 305.339844 L 188.78125 305.339844 C 193.976562 305.339844 198.191406 309.554688 198.191406 314.753906 C 198.191406 319.949219 193.976562 324.164062 188.78125 324.164062 Z M 276.628906 261.417969 L 100.933594 261.417969 C 95.734375 261.417969 91.519531 257.199219 91.519531 252.003906 C 91.519531 246.808594 95.734375 242.589844 100.933594 242.589844 L 276.628906 242.589844 C 281.824219 242.589844 286.042969 246.808594 286.042969 252.003906 C 286.042969 257.199219 281.824219 261.417969 276.628906 261.417969 Z M 276.628906 198.667969 L 100.933594 198.667969 C 95.734375 198.667969 91.519531 194.453125 91.519531 189.253906 C 91.519531 184.058594 95.734375 179.84375 100.933594 179.84375 L 276.628906 179.84375 C 281.824219 179.84375 286.042969 184.058594 286.042969 189.253906 C 286.042969 194.453125 281.824219 198.667969 276.628906 198.667969 Z M 276.628906 198.667969 " fill-opacity="1" fill-rule="nonzero"/></g></svg>